<svg xmlns="http://www.w3.org/2000/svg" xmlns:svg="http://www.w3.org/2000/svg" xmlns:xlink="http://www.w3.org/1999/xlink" id="svg2383" width="199.936" height="199.936" version="1.0"><defs id="defs2385"><linearGradient id="linearGradient5398"><stop style="stop-color:#fff;stop-opacity:1" id="stop5400" offset="0"/><stop style="stop-color:#9b9b9b;stop-opacity:1" id="stop5402" offset="1"/></linearGradient><linearGradient id="linearGradient5384"><stop style="stop-color:#fff;stop-opacity:1" id="stop5386" offset="0"/><stop style="stop-color:#2bc4fd;stop-opacity:0" id="stop5388" offset="1"/></linearGradient><linearGradient id="linearGradient5372"><stop style="stop-color:#fff;stop-opacity:1" id="stop5374" offset="0"/><stop style="stop-color:#afccfa;stop-opacity:.22943723" id="stop5376" offset="1"/></linearGradient><linearGradient id="linearGradient5241"><stop style="stop-color:#b2f0fb;stop-opacity:1" id="stop5243" offset="0"/><stop style="stop-color:#09409c;stop-opacity:1" id="stop5245" offset="1"/></linearGradient><linearGradient id="linearGradient3323"><stop style="stop-color:#ff0;stop-opacity:1" id="stop3325" offset="0"/><stop style="stop-color:#9c9c31;stop-opacity:1" id="stop3327" offset="1"/></linearGradient><linearGradient id="linearGradient2467" x1="463" x2="463" y1="1" y2="289.174" gradientUnits="userSpaceOnUse" xlink:href="#linearGradient3323"/><radialGradient id="radialGradient2469" cx="346.175" cy="1180.948" r="41.882" fx="346.175" fy="1180.948" gradientTransform="matrix(0.9379228,-0.9122563,0.9392799,0.9657078,-1081.8977,353.7872)" gradientUnits="userSpaceOnUse" xlink:href="#linearGradient5241"/><linearGradient id="linearGradient2471" x1="140.018" x2="140.018" y1="1116.364" y2="1142.726" gradientTransform="translate(-41.840109,-3.8285067)" gradientUnits="userSpaceOnUse" xlink:href="#linearGradient5372"/><radialGradient id="radialGradient2473" cx="351.119" cy="1145.457" r="41.382" fx="351.119" fy="1145.457" gradientTransform="matrix(0.6944992,-0.5362593,0.6111622,0.7915054,-592.79298,427.1126)" gradientUnits="userSpaceOnUse" xlink:href="#linearGradient5384"/><linearGradient id="linearGradient2475" x1="139.11" x2="129.493" y1="1147.191" y2="1162.816" gradientTransform="translate(-41.840109,-3.8285067)" gradientUnits="userSpaceOnUse" xlink:href="#linearGradient5398"/><linearGradient id="linearGradient3251" x1="463" x2="463" y1="1" y2="289.174" gradientUnits="userSpaceOnUse" xlink:href="#linearGradient3323"/><radialGradient id="radialGradient3253" cx="346.175" cy="1180.948" r="41.882" fx="346.175" fy="1180.948" gradientTransform="matrix(0.9379228,-0.9122563,0.9392799,0.9657078,-1081.8977,353.7872)" gradientUnits="userSpaceOnUse" xlink:href="#linearGradient5241"/><linearGradient id="linearGradient3255" x1="140.018" x2="140.018" y1="1116.364" y2="1142.726" gradientTransform="translate(-41.840109,-3.8285067)" gradientUnits="userSpaceOnUse" xlink:href="#linearGradient5372"/><radialGradient id="radialGradient3257" cx="351.119" cy="1145.457" r="41.382" fx="351.119" fy="1145.457" gradientTransform="matrix(0.6944992,-0.5362593,0.6111622,0.7915054,-592.79298,427.1126)" gradientUnits="userSpaceOnUse" xlink:href="#linearGradient5384"/><linearGradient id="linearGradient3259" x1="139.11" x2="129.493" y1="1147.191" y2="1162.816" gradientTransform="translate(-41.840109,-3.8285067)" gradientUnits="userSpaceOnUse" xlink:href="#linearGradient5398"/></defs><metadata id="metadata2388"/><g id="layer1" transform="translate(-92.024233,-271.12511)"><g id="g2432" transform="matrix(0.57751492,0,0,0.57751492,-16.490436,198.41633)"><path id="path3271" d="m 631,155 c 0,95.54526 -77.45474,173 -173,173 -95.54526,0 -173,-77.45474 -173,-173 0,-95.545262 77.45474,-173 173,-173 95.54526,0 173,77.454738 173,173 z" transform="translate(-97,144)" style="opacity:.69166667;fill:url(#linearGradient3251);fill-opacity:1;stroke:none"/><path id="path3273" d="m 303,133.5 c 0,7.45584 -6.04416,13.5 -13.5,13.5 -7.45584,0 -13.5,-6.04416 -13.5,-13.5 0,-7.45584 6.04416,-13.5 13.5,-13.5 7.45584,0 13.5,6.04416 13.5,13.5 z" transform="translate(10,76)" style="opacity:.69166667;fill:#b2b254;fill-opacity:1;stroke:none"/><path id="path3275" d="m 436,188 c 0,2.76142 -2.23858,5 -5,5 -2.76142,0 -5,-2.23858 -5,-5 0,-2.76142 2.23858,-5 5,-5 2.76142,0 5,2.23858 5,5 z" transform="translate(10,76)" style="opacity:.69166667;fill:#b2b254;fill-opacity:1;stroke:none"/><path id="path3277" d="m 406.56231,111.5 c 0,2.48528 -3.25988,4.5 -7.28115,4.5 -4.02127,0 -7.28115,-2.01472 -7.28115,-4.5 0,-2.48528 3.25988,-4.5 7.28115,-4.5 4.02127,0 7.28115,2.01472 7.28115,4.5 z" transform="translate(10,76)" style="opacity:.69166667;fill:#b2b254;fill-opacity:1;stroke:none"/><path id="path3279" d="m 404,158 c 0,3.86599 -3.13401,7 -7,7 -3.86599,0 -7,-3.13401 -7,-7 0,-3.86599 3.13401,-7 7,-7 3.86599,0 7,3.13401 7,7 z" transform="translate(10,76)" style="opacity:.69166667;fill:#b2b254;fill-opacity:1;stroke:none"/><path id="path3281" d="m 253,283 c 0,3.31371 -2.68629,6 -6,6 -3.31371,0 -6,-2.68629 -6,-6 0,-3.31371 2.68629,-6 6,-6 3.31371,0 6,2.68629 6,6 z" transform="translate(10,76)" style="opacity:.69166667;fill:#b2b254;fill-opacity:1;stroke:none"/><path id="path3283" d="m 362,297.5 c 0,1.933 -1.567,3.5 -3.5,3.5 -1.933,0 -3.5,-1.567 -3.5,-3.5 0,-1.933 1.567,-3.5 3.5,-3.5 1.933,0 3.5,1.567 3.5,3.5 z" transform="translate(10,76)" style="opacity:.69166667;fill:#b2b254;fill-opacity:1;stroke:none"/><path id="path3285" d="m 303,231.5 c 0,3.03757 -2.46243,5.5 -5.5,5.5 -3.03757,0 -5.5,-2.46243 -5.5,-5.5 0,-3.03757 2.46243,-5.5 5.5,-5.5 3.03757,0 5.5,2.46243 5.5,5.5 z" transform="translate(10,76)" style="opacity:.69166667;fill:#b2b254;fill-opacity:1;stroke:none"/><path id="path3287" d="m 314,251 c 0,1.65685 -1.34315,3 -3,3 -1.65685,0 -3,-1.34315 -3,-3 0,-1.65685 1.34315,-3 3,-3 1.65685,0 3,1.34315 3,3 z" transform="translate(10,76)" style="opacity:.69166667;fill:#b2b254;fill-opacity:1;stroke:none"/><path id="path3289" d="m 322,234.5 c 0,0.82843 -1.34315,1.5 -3,1.5 -1.65685,0 -3,-0.67157 -3,-1.5 0,-0.82843 1.34315,-1.5 3,-1.5 1.65685,0 3,0.67157 3,1.5 z" transform="translate(10,76)" style="opacity:.69166667;fill:#b2b254;fill-opacity:1;stroke:none"/><path id="path3291" d="m 316,217 c 0,2.20914 -1.79086,4 -4,4 -2.20914,0 -4,-1.79086 -4,-4 0,-2.20914 1.79086,-4 4,-4 2.20914,0 4,1.79086 4,4 z" transform="translate(10,76)" style="opacity:.69166667;fill:#b2b254;fill-opacity:1;stroke:none"/><path id="path3293" d="m 349,255 c 0,3.86599 -2.46243,7 -5.5,7 -3.03757,0 -5.5,-3.13401 -5.5,-7 0,-3.86599 2.46243,-7 5.5,-7 3.03757,0 5.5,3.13401 5.5,7 z" transform="translate(10,76)" style="opacity:.69166667;fill:#b2b254;fill-opacity:1;stroke:none"/><path id="path3295" d="m 414,285.5 c 0,3.03757 -2.23858,5.5 -5,5.5 -2.76142,0 -5,-2.46243 -5,-5.5 0,-3.03757 2.23858,-5.5 5,-5.5 2.76142,0 5,2.46243 5,5.5 z" transform="translate(10,76)" style="opacity:.69166667;fill:#b2b254;fill-opacity:1;stroke:none"/><path id="path3297" d="m 502,252 c 0,2.20914 -2.01472,4 -4.5,4 -2.48528,0 -4.5,-1.79086 -4.5,-4 0,-2.20914 2.01472,-4 4.5,-4 2.48528,0 4.5,1.79086 4.5,4 z" transform="translate(10,76)" style="opacity:.69166667;fill:#b2b254;fill-opacity:1;stroke:none"/><path id="path3299" d="m 488,283 c 0,2.76142 -2.23858,5 -5,5 -2.76142,0 -5,-2.23858 -5,-5 0,-2.76142 2.23858,-5 5,-5 2.76142,0 5,2.23858 5,5 z" transform="translate(10,76)" style="opacity:.69166667;fill:#b2b254;fill-opacity:1;stroke:none"/><path id="path3301" d="m 494,159.5 c 0,5.24671 -4.02944,9.5 -9,9.5 -4.97056,0 -9,-4.25329 -9,-9.5 0,-5.24671 4.02944,-9.5 9,-9.5 4.97056,0 9,4.25329 9,9.5 z" transform="translate(10,76)" style="opacity:.69166667;fill:#b2b254;fill-opacity:1;stroke:none"/><path id="path3303" d="m 216,184 c 0,3.31371 -2.91015,6 -6.5,6 -3.58985,0 -6.5,-2.68629 -6.5,-6 0,-3.31371 2.91015,-6 6.5,-6 3.58985,0 6.5,2.68629 6.5,6 z" transform="translate(10,76)" style="opacity:.69166667;fill:#b2b254;fill-opacity:1;stroke:none"/><path id="path3305" d="m 269,174 c 0,2.20914 -2.46243,4 -5.5,4 -3.03757,0 -5.5,-1.79086 -5.5,-4 0,-2.20914 2.46243,-4 5.5,-4 3.03757,0 5.5,1.79086 5.5,4 z" transform="translate(10,76)" style="opacity:.69166667;fill:#b2b254;fill-opacity:1;stroke:none"/><path id="path3307" d="m 257,103.5 c 0,3.03757 -2.91015,5.5 -6.5,5.5 -3.58985,0 -6.5,-2.46243 -6.5,-5.5 0,-3.03757 2.91015,-5.5 6.5,-5.5 3.58985,0 6.5,2.46243 6.5,5.5 z" transform="translate(10,76)" style="opacity:.69166667;fill:#b2b254;fill-opacity:1;stroke:none"/><path id="path3309" d="m 325,356.5 c 0,2.48528 -2.23858,4.5 -5,4.5 -2.76142,0 -5,-2.01472 -5,-4.5 0,-2.48528 2.23858,-4.5 5,-4.5 2.76142,0 5,2.01472 5,4.5 z" transform="translate(10,76)" style="opacity:.69166667;fill:#b2b254;fill-opacity:1;stroke:none"/><path id="path3311" d="m 310,340.5 c 0,3.03757 -2.46243,5.5 -5.5,5.5 -3.03757,0 -5.5,-2.46243 -5.5,-5.5 0,-3.03757 2.46243,-5.5 5.5,-5.5 3.03757,0 5.5,2.46243 5.5,5.5 z" transform="translate(10,76)" style="opacity:.69166667;fill:#b2b254;fill-opacity:1;stroke:none"/><path id="path3313" d="m 287,362 c 0,2.76142 -2.23858,5 -5,5 -2.76142,0 -5,-2.23858 -5,-5 0,-2.76142 2.23858,-5 5,-5 2.76142,0 5,2.23858 5,5 z" transform="translate(10,76)" style="opacity:.69166667;fill:#b2b254;fill-opacity:1;stroke:none"/><path id="path3315" d="m 396,350 c 0,3.86599 -2.46243,7 -5.5,7 -3.03757,0 -5.5,-3.13401 -5.5,-7 0,-3.86599 2.46243,-7 5.5,-7 3.03757,0 5.5,3.13401 5.5,7 z" transform="translate(10,76)" style="opacity:.69166667;fill:#b2b254;fill-opacity:1;stroke:none"/><path id="path3317" d="m 304,276 c 0,2.20914 -2.91015,4 -6.5,4 -3.58985,0 -6.5,-1.79086 -6.5,-4 0,-2.20914 2.91015,-4 6.5,-4 3.58985,0 6.5,1.79086 6.5,4 z" transform="translate(10,76)" style="opacity:.69166667;fill:#b2b254;fill-opacity:1;stroke:none"/><path id="path3319" d="m 327,88.5 c 0,1.932997 -1.79086,3.5 -4,3.5 -2.20914,0 -4,-1.567003 -4,-3.5 0,-1.932997 1.79086,-3.5 4,-3.5 2.20914,0 4,1.567003 4,3.5 z" transform="translate(10,76)" style="opacity:.69166667;fill:#b2b254;fill-opacity:1;stroke:none"/><path id="path3321" d="m 364,153 c 0,3.86599 -4.02944,7 -9,7 -4.97056,0 -9,-3.13401 -9,-7 0,-3.86599 4.02944,-7 9,-7 4.97056,0 9,3.13401 9,7 z" transform="translate(10,76)" style="opacity:.69166667;fill:#b2b254;fill-opacity:1;stroke:none"/><path id="path3331" d="M 358.81807,130.05626 C 268.39049,130.05626 195,203.44676 195,293.87433 c 0,17.90703 2.87851,35.1487 8.19682,51.28192 -0.40572,-5.04423 -0.62142,-10.15067 -0.62142,-15.29876 0,-104.01784 84.42028,-188.43812 188.43812,-188.43812 12.28304,0 24.29423,1.18498 35.92398,3.4326 -20.74502,-9.50488 -43.82074,-14.79571 -68.11943,-14.79571 z" style="opacity:.36666667;fill:#fff;fill-opacity:1;stroke:none"/><g id="g3233" transform="matrix(4.1330776,0,0,4.1330776,-40.090232,-4445.6312)"><path style="fill:#89b6ff;fill-opacity:1;fill-rule:nonzero;stroke:#888;stroke-width:1;stroke-linecap:butt;stroke-linejoin:miter;stroke-miterlimit:4;stroke-opacity:1;stroke-dasharray:none;stroke-dashoffset:0;marker:none;visibility:visible;display:inline;overflow:visible;enable-background:accumulate" id="path3235" d="m 393.41041,1145.2751 c 0,22.8546 -18.52725,41.3818 -41.38178,41.3818 -22.85453,0 -41.38179,-18.5272 -41.38179,-41.3818 0,-22.8545 18.52726,-41.3817 41.38179,-41.3817 22.85453,0 41.38178,18.5272 41.38178,41.3817 z" transform="translate(-254.98466,2.6905421)"/><path style="fill:url(#radialGradient3253);fill-opacity:1;fill-rule:nonzero;stroke:none;stroke-width:1;marker:none;visibility:visible;display:inline;overflow:visible;enable-background:accumulate" id="path3237" d="m 393.41041,1145.2751 c 0,22.8546 -18.52725,41.3818 -41.38178,41.3818 -22.85453,0 -41.38179,-18.5272 -41.38179,-41.3818 0,-22.8545 18.52726,-41.3817 41.38179,-41.3817 22.85453,0 41.38178,18.5272 41.38178,41.3817 z" transform="matrix(0.9492434,0,0,0.9492434,-236.97519,60.395619)"/><path style="fill:url(#linearGradient3255);fill-opacity:1;fill-rule:nonzero;stroke:none;stroke-width:1;marker:none;visibility:visible;display:inline;overflow:visible;enable-background:accumulate" id="path3239" d="m 96.890721,1109.8199 c -19.24014,0 -35.01513,14.7548 -36.6875,33.5625 0.66787,-0.1591 1.37582,-0.25 2.09375,-0.25 23.741,-9.4294 47.481539,-8.4727 71.312499,0 -1.78811,-18.6899 -17.56282,-33.3125 -36.718749,-33.3125 z"/><path style="fill:url(#radialGradient3257);fill-opacity:1;fill-rule:nonzero;stroke:none;stroke-width:1;marker:none;visibility:visible;display:inline;overflow:visible;enable-background:accumulate" id="path3241" d="m 393.41041,1145.2751 c 0,22.8546 -18.52725,41.3818 -41.38178,41.3818 -22.85453,0 -41.38179,-18.5272 -41.38179,-41.3818 0,-22.8545 18.52726,-41.3817 41.38179,-41.3817 22.85453,0 41.38178,18.5272 41.38178,41.3817 z" transform="matrix(0.3436025,0,0,0.3436025,-23.985544,781.53455)"/><path style="fill:url(#linearGradient3259);fill-opacity:1;fill-rule:evenodd;stroke:#3f3f83;stroke-width:.5;stroke-linecap:butt;stroke-linejoin:miter;stroke-miterlimit:4;stroke-opacity:1;stroke-dasharray:none" id="path3243" d="m 86.784881,1161.7415 c 1.9117,1.3772 28.684549,-12.6515 28.718429,-15.6952 0.0311,-2.7917 -25.776429,-16.5407 -28.617989,-15.3873 -2.80739,1.1395 -2.18933,29.5777 -0.10044,31.0825 z"/></g></g></g></svg>